<svg width="62" height="62" viewBox="0 0 62 62" fill="none" xmlns="http://www.w3.org/2000/svg">
<path fill-rule="evenodd" clip-rule="evenodd" d="M0 31C0 48.1208 13.8792 62 31 62C48.1208 62 62 48.1208 62 31C62 13.8792 48.1208 0 31 0C13.8792 0 0 13.8792 0 31ZM50.4551 29.8136C50.4511 39.9748 42.185 48.2428 32.0217 48.247H32.0141C28.9289 48.2459 25.8975 47.4719 23.2051 46.0033L13.4332 48.5666L16.0483 39.0146C14.4352 36.219 13.5864 33.0479 13.5878 29.799C13.5918 19.6355 21.8611 11.3667 32.0215 11.3667C36.9527 11.3688 41.581 13.2885 45.0612 16.7728C48.5415 20.257 50.4571 24.8882 50.4551 29.8136Z" fill="#2B2A29"/>
<path fill-rule="evenodd" clip-rule="evenodd" d="M17.8592 44.1873L23.658 42.6662L24.2175 42.9982C26.5698 44.3942 29.2663 45.1328 32.0156 45.1339H32.0218C40.4664 45.1339 47.3395 38.2607 47.3429 29.8126C47.3445 25.7187 45.7523 21.8693 42.8597 18.9733C39.967 16.0773 36.1201 14.4816 32.0278 14.4802C23.5767 14.4802 16.7035 21.3527 16.7002 29.8001C16.699 32.6952 17.509 35.5145 19.0427 37.9539L19.407 38.5336L17.8592 44.1873ZM40.6777 33.7823C40.999 33.9376 41.2159 34.0424 41.3085 34.197C41.4237 34.3891 41.4237 35.3113 41.04 36.3873C40.6561 37.4632 38.816 38.4451 37.931 38.5773C37.1375 38.696 36.1333 38.7454 35.03 38.3948C34.361 38.1826 33.5031 37.8992 32.4042 37.4246C28.0863 35.5601 25.1682 31.3751 24.6167 30.5841C24.5781 30.5287 24.551 30.4899 24.536 30.4698L24.5323 30.4648C24.2885 30.1396 22.6553 27.9605 22.6553 25.7051C22.6553 23.5835 23.6974 22.4715 24.1771 21.9596C24.21 21.9246 24.2402 21.8923 24.2673 21.8627C24.6895 21.4016 25.1885 21.2863 25.4955 21.2863C25.8026 21.2863 26.1099 21.2892 26.3783 21.3026C26.4114 21.3043 26.4459 21.3041 26.4815 21.3039C26.7499 21.3023 27.0845 21.3004 27.4146 22.0933C27.5416 22.3984 27.7274 22.8508 27.9234 23.328C28.3197 24.2929 28.7577 25.359 28.8347 25.5132C28.9499 25.7438 29.0266 26.0127 28.8731 26.3202C28.85 26.3663 28.8287 26.4098 28.8084 26.4514C28.6931 26.6868 28.6082 26.86 28.4125 27.0885C28.3356 27.1784 28.256 27.2752 28.1765 27.3721C28.018 27.5651 27.8596 27.758 27.7216 27.8955C27.491 28.1252 27.251 28.3743 27.5197 28.8355C27.7884 29.2966 28.7127 30.8048 30.082 32.0262C31.5539 33.3391 32.8331 33.8939 33.4816 34.1752C33.6082 34.2301 33.7108 34.2746 33.786 34.3123C34.2464 34.5429 34.5151 34.5043 34.7838 34.197C35.0525 33.8896 35.9352 32.852 36.2422 32.391C36.5492 31.9301 36.8564 32.0068 37.2785 32.1605C37.7008 32.3143 39.9653 33.4285 40.4258 33.659C40.5158 33.704 40.5998 33.7446 40.6777 33.7823Z" fill="#2B2A29"/>
</svg>
