<svg width="62" height="62" viewBox="0 0 62 62" fill="none" xmlns="http://www.w3.org/2000/svg">
<path fill-rule="evenodd" clip-rule="evenodd" d="M31 0C13.8792 0 0 13.8792 0 31C0 48.1208 13.8792 62 31 62C48.1208 62 62 48.1208 62 31C62 13.8792 48.1208 0 31 0ZM43.9187 20.3429C45.3415 20.7333 46.462 21.8837 46.8423 23.3446C47.5333 25.9923 47.5333 31.5167 47.5333 31.5167C47.5333 31.5167 47.5333 37.0409 46.8423 39.6888C46.462 41.1497 45.3415 42.3 43.9187 42.6907C41.3402 43.4 30.9999 43.4 30.9999 43.4C30.9999 43.4 20.6597 43.4 18.081 42.6907C16.6582 42.3 15.5377 41.1497 15.1574 39.6888C14.4666 37.0409 14.4666 31.5167 14.4666 31.5167C14.4666 31.5167 14.4666 25.9923 15.1574 23.3446C15.5377 21.8837 16.6582 20.7333 18.081 20.3429C20.6597 19.6333 30.9999 19.6333 30.9999 19.6333C30.9999 19.6333 41.3402 19.6333 43.9187 20.3429Z" fill="#2B2A29"/>
<path d="M27.9001 37.2V26.8666L36.1668 32.0335L27.9001 37.2Z" fill="#2B2A29"/>
</svg>
